<?xml version="1.0" standalone="no"?>
<!DOCTYPE svg PUBLIC "-//W3C//DTD SVG 20010904//EN"
 "http://www.w3.org/TR/2001/REC-SVG-20010904/DTD/svg10.dtd">
<svg version="1.0" xmlns="http://www.w3.org/2000/svg"
 width="1671.000000pt" height="583.000000pt" viewBox="0 0 1671.000000 583.000000"
 preserveAspectRatio="xMidYMid meet">

<g transform="translate(0.000000,583.000000) scale(0.100000,-0.100000)"
fill="#000000" stroke="none">
<path d="M4830 4840 c0 -472 4 -713 12 -762 16 -105 54 -239 88 -313 17 -36
30 -70 30 -75 0 -6 5 -10 10 -10 6 0 10 -4 10 -10 0 -14 84 -143 117 -181 165
-188 396 -312 668 -361 36 -6 324 -12 733 -15 l672 -4 0 960 0 961 -250 0
-250 0 0 -714 c0 -642 -2 -714 -16 -720 -26 -10 -601 -6 -703 4 -121 13 -200
34 -286 75 -118 57 -209 146 -255 250 -36 81 -38 88 -49 140 -28 134 -31 222
-31 829 l0 636 -250 0 -250 0 0 -690z"/>
<path d="M7375 5518 c-3 -7 -4 -551 -3 -1208 l3 -1195 2179 -3 c1281 -1 2184
2 2189 7 20 20 -1 394 -33 586 -14 87 -43 220 -59 278 -6 20 -15 52 -19 70
-10 35 -48 149 -63 185 -5 12 -13 32 -18 45 -38 97 -162 333 -206 392 -140
191 -254 311 -395 419 -324 248 -718 385 -1219 425 -145 12 -400 15 -425 5
-14 -5 -16 -44 -16 -335 0 -181 -4 -329 -9 -329 -4 0 -32 25 -61 56 -292 308
-695 504 -1190 578 -233 35 -645 50 -655 24z m730 -534 c267 -44 522 -180 730
-388 153 -153 232 -275 339 -518 44 -99 123 -420 114 -464 -3 -19 -17 -19
-703 -19 l-700 0 -3 695 c-1 382 0 701 3 708 5 15 67 11 220 -14z m1920 0
c318 -53 630 -239 836 -499 115 -145 180 -262 259 -470 35 -91 79 -284 82
-365 l3 -55 -680 -3 c-374 -1 -690 0 -702 3 l-23 5 0 699 c0 384 3 701 7 705
9 9 89 1 218 -20z"/>
<path d="M5606 2603 c-4 -9 -4 -60 -1 -112 3 -53 2 -145 -2 -205 l-8 -110 -38
41 c-56 59 -139 78 -228 52 -133 -40 -206 -227 -180 -463 25 -221 133 -326
307 -300 39 6 58 16 98 55 28 27 54 49 58 49 5 0 8 -17 8 -37 0 -59 8 -64 90
-61 l72 3 -1 544 c-1 300 -4 548 -7 553 -3 4 -40 8 -84 8 -63 0 -79 -3 -84
-17z m-79 -475 c53 -37 73 -100 73 -231 0 -60 -5 -127 -12 -149 -39 -132 -181
-159 -240 -45 -18 36 -21 59 -22 172 -1 103 3 140 17 177 36 92 113 124 184
76z"/>
<path d="M7145 2610 c-4 -6 -5 -102 -4 -215 1 -113 0 -207 -3 -210 -3 -3 -22
11 -44 31 -49 47 -90 64 -154 64 -163 0 -260 -145 -260 -390 0 -130 20 -211
72 -288 41 -60 92 -91 163 -98 86 -9 134 7 189 62 49 50 50 50 58 -26 3 -24 6
-25 81 -28 l77 -3 0 556 0 555 -84 0 c-47 0 -88 -5 -91 -10z m-78 -485 c14 -9
34 -38 46 -63 18 -40 22 -66 22 -172 0 -107 -4 -132 -22 -172 -28 -62 -73 -91
-131 -85 -91 10 -115 62 -116 253 -1 129 1 144 23 187 38 74 111 95 178 52z"/>
<path d="M8333 2608 c-4 -7 -9 -105 -10 -217 -1 -112 -4 -206 -7 -208 -3 -3
-18 9 -33 27 -56 67 -173 90 -259 51 -43 -19 -94 -74 -119 -127 -67 -142 -53
-420 28 -533 50 -69 105 -96 197 -95 84 0 94 3 155 63 48 46 52 45 57 -19 l3
-35 78 -3 77 -3 -2 553 -3 553 -77 3 c-54 2 -79 -1 -85 -10z m-103 -473 c66
-34 95 -125 88 -276 -3 -67 -10 -108 -25 -141 -37 -81 -113 -109 -180 -68 -54
33 -66 75 -67 235 0 126 2 145 23 187 34 70 99 95 161 63z"/>
<path d="M9442 2068 l3 -553 40 -3 c22 -2 59 -1 83 3 l42 6 -2 547 -3 547 -83
3 -82 3 2 -553z"/>
<path d="M15055 2608 c-3 -7 -4 -256 -3 -553 l3 -540 85 0 85 0 0 550 0 550
-83 3 c-60 2 -84 -1 -87 -10z"/>
<path d="M15436 2253 c-4 -202 -5 -423 -1 -491 3 -67 5 -151 5 -187 l0 -65 73
0 c39 0 78 4 85 8 10 7 12 124 10 553 l-3 544 -81 3 -81 3 -7 -368z"/>
<path d="M1847 2583 c-4 -3 -7 -39 -7 -79 0 -87 8 -94 95 -94 89 0 95 7 95
100 l0 80 -88 0 c-49 0 -92 -3 -95 -7z"/>
<path d="M4790 2511 c0 -51 4 -82 13 -89 7 -5 47 -7 95 -4 l82 5 0 83 0 84
-95 0 -95 0 0 -79z"/>
<path d="M174 2526 c-3 -9 -4 -186 -2 -393 4 -352 6 -381 25 -429 58 -146 174
-212 353 -202 168 10 258 80 306 237 11 36 14 129 14 424 l0 378 -92 -3 -93
-3 -5 -395 c-4 -353 -7 -398 -23 -427 -28 -51 -78 -70 -176 -65 -43 3 -95 54
-110 108 -5 22 -11 198 -13 409 l-3 370 -88 3 c-71 2 -88 0 -93 -12z"/>
<path d="M10210 2025 l0 -518 188 6 c197 6 249 15 337 59 98 50 180 159 215
288 16 58 16 282 0 340 -45 162 -131 259 -275 311 -52 19 -87 23 -262 27
l-203 4 0 -517z m340 359 c143 -42 202 -134 217 -333 12 -163 -47 -304 -151
-359 -48 -26 -132 -44 -183 -40 l-38 3 -3 360 c-1 198 0 366 3 372 6 18 90 16
155 -3z"/>
<path d="M1345 2261 c-22 -10 -55 -34 -72 -54 -38 -44 -43 -45 -43 -13 0 14
-4 36 -10 50 -9 25 -13 26 -85 26 l-75 0 2 -377 3 -378 73 -3 c43 -2 79 2 87
8 10 8 14 70 17 263 3 217 6 256 21 284 36 66 127 84 176 35 35 -34 41 -95 40
-376 0 -109 4 -203 9 -208 5 -5 44 -8 88 -6 l79 3 3 270 c3 268 -1 317 -33
390 -40 91 -177 133 -280 86z"/>
<path d="M3093 2251 c-43 -23 -73 -47 -102 -85 -23 -29 -41 -59 -41 -67 0 -8
-4 -19 -9 -24 -16 -17 -31 -113 -31 -193 1 -179 62 -292 189 -350 50 -24 68
-26 166 -25 82 0 123 6 160 20 l50 19 3 67 c2 37 0 67 -4 67 -4 0 -26 -9 -49
-20 -55 -26 -150 -36 -212 -21 -69 17 -110 60 -125 134 -7 31 -8 60 -4 64 4 4
98 9 209 10 111 0 208 1 215 2 18 1 16 119 -4 195 -40 155 -122 226 -269 234
-74 3 -85 1 -142 -27z m184 -111 c39 -23 47 -38 64 -113 11 -50 10 -60 -2 -68
-8 -5 -67 -9 -132 -9 -134 0 -138 3 -119 77 14 52 50 109 77 122 32 16 78 12
112 -9z"/>
<path d="M3938 2251 c-25 -16 -57 -46 -70 -65 -14 -20 -28 -33 -31 -29 -4 3
-7 30 -7 60 l0 53 -78 0 -79 0 -1 -362 c0 -200 1 -371 4 -380 5 -15 18 -18 90
-18 l84 0 0 223 c0 248 8 292 60 342 25 23 41 30 90 33 l60 4 0 84 0 84 -38 0
c-25 0 -54 -10 -84 -29z"/>
<path d="M4320 2271 c-45 -14 -84 -39 -116 -73 -46 -48 -54 -69 -54 -138 0
-98 37 -140 208 -239 85 -50 115 -89 101 -131 -6 -15 -21 -32 -35 -39 -36 -16
-131 -14 -193 5 -75 22 -83 17 -79 -58 l3 -63 40 -13 c54 -18 228 -20 286 -3
92 26 159 113 159 204 0 70 -41 124 -150 193 -171 109 -201 151 -146 203 23
22 31 23 133 20 l108 -4 6 50 c3 28 2 55 -3 62 -21 27 -204 43 -268 24z"/>
<path d="M6122 2270 c-18 -4 -53 -15 -78 -25 l-44 -17 0 -56 c0 -82 6 -86 70
-54 68 34 171 42 218 18 38 -19 62 -62 65 -114 l2 -37 -90 -7 c-242 -20 -330
-80 -343 -234 -6 -76 10 -125 55 -175 45 -50 121 -74 201 -65 64 8 84 17 137
65 l40 35 6 -37 c3 -21 11 -43 16 -48 5 -5 41 -9 79 -7 l69 3 0 280 c0 243 -2
287 -18 331 -23 67 -77 120 -141 139 -52 16 -187 19 -244 5z m223 -394 c16
-11 17 -22 12 -76 -9 -79 -32 -128 -76 -157 -59 -40 -150 -21 -181 38 -19 34
-7 115 21 145 22 23 89 48 154 57 17 2 35 5 41 6 5 0 18 -5 29 -13z"/>
<path d="M8880 2268 c-102 -29 -185 -139 -216 -284 -17 -83 -17 -110 -3 -188
32 -170 135 -272 291 -291 66 -7 210 10 250 31 25 13 28 20 28 67 0 70 -12 81
-60 57 -50 -26 -153 -35 -210 -20 -67 18 -115 73 -124 140 -5 39 -4 55 6 62 7
4 101 8 208 8 107 -1 201 -1 208 -1 16 1 16 100 1 173 -27 124 -86 204 -175
238 -59 22 -145 25 -204 8z m171 -148 c33 -39 58 -148 37 -161 -15 -10 -218
-12 -242 -3 -36 14 11 155 62 187 43 28 110 17 143 -23z"/>
<path d="M11314 2264 c-85 -30 -157 -115 -191 -225 -25 -83 -21 -257 8 -334
30 -80 104 -155 179 -181 71 -24 221 -24 303 0 l57 17 0 69 c0 39 -2 70 -4 70
-2 0 -25 -10 -52 -22 -72 -33 -204 -32 -257 1 -45 28 -77 86 -77 140 0 37 2
41 33 46 17 3 106 4 197 2 91 -2 173 -2 183 1 14 4 17 17 17 87 0 117 -33 208
-102 277 -62 63 -197 86 -294 52z m156 -121 c40 -27 70 -90 70 -150 0 -41 -12
-45 -150 -41 l-105 3 -3 38 c-4 50 31 123 72 148 38 23 84 24 116 2z"/>
<path d="M11999 2266 c-61 -21 -105 -54 -134 -98 -23 -34 -27 -52 -27 -103 0
-101 20 -128 177 -225 148 -92 168 -124 109 -177 -33 -31 -140 -32 -215 -3
-29 10 -56 17 -61 14 -4 -3 -8 -36 -8 -74 l0 -69 43 -12 c23 -6 92 -12 152
-12 91 0 118 3 155 20 61 28 96 62 120 114 24 53 25 94 5 142 -21 50 -54 80
-167 154 -123 79 -140 97 -136 143 2 25 10 38 28 47 31 16 117 17 176 2 25 -6
48 -9 51 -5 13 12 20 116 9 125 -36 29 -214 40 -277 17z"/>
<path d="M12645 2275 c-5 -2 -36 -11 -68 -21 -32 -9 -62 -24 -67 -33 -10 -19
-1 -109 11 -117 5 -3 39 7 77 22 108 43 211 30 241 -30 19 -41 33 -98 25 -105
-5 -4 -61 -13 -124 -19 -212 -20 -275 -61 -311 -202 -10 -40 -10 -60 -1 -95
27 -103 93 -159 198 -171 78 -8 130 9 192 61 22 19 43 35 46 35 3 0 6 -12 6
-26 0 -54 15 -64 90 -64 38 0 71 3 73 8 3 4 2 140 -2 302 -7 273 -9 298 -29
336 -44 87 -127 125 -266 123 -45 0 -85 -2 -91 -4z m185 -392 l33 -6 -6 -77
c-8 -116 -40 -164 -120 -177 -59 -9 -103 12 -126 61 -25 50 -26 63 -6 108 18
44 43 61 120 81 74 19 66 18 105 10z"/>
<path d="M13477 2250 c-26 -16 -57 -46 -69 -65 -11 -20 -23 -34 -25 -31 -3 3
-8 29 -12 58 l-6 53 -78 3 -77 3 2 -378 3 -378 87 -1 c86 -1 87 -1 93 25 2 14
4 123 3 241 -3 234 0 247 56 299 20 19 40 26 86 29 l60 4 0 84 0 84 -38 0
c-25 0 -54 -10 -85 -30z"/>
<path d="M13995 2247 c-27 -18 -56 -47 -64 -65 -9 -17 -19 -32 -23 -32 -4 0
-10 27 -14 60 l-7 61 -76 -3 -76 -3 0 -367 c0 -250 3 -370 11 -378 7 -7 36 -8
90 -3 l79 8 3 235 c2 252 6 272 56 319 19 18 41 26 81 29 30 2 59 10 65 17 6
8 10 43 8 82 l-3 68 -41 3 c-32 2 -50 -4 -89 -31z"/>
<path d="M14427 2263 c-88 -30 -162 -114 -196 -222 -14 -44 -14 -258 0 -302
35 -109 77 -162 163 -206 45 -24 63 -27 156 -27 94 0 110 2 155 26 125 66 175
167 175 359 0 187 -60 306 -182 359 -70 31 -202 37 -271 13z m182 -127 c57
-30 83 -107 83 -246 0 -182 -45 -260 -150 -260 -50 0 -83 26 -112 87 -20 42
-23 64 -23 173 0 110 3 131 23 173 12 26 34 56 48 67 30 24 91 26 131 6z"/>
<path d="M15992 2262 c-133 -48 -212 -184 -212 -367 1 -185 65 -314 183 -366
74 -32 229 -33 303 0 90 39 144 114 169 233 48 225 -22 423 -174 491 -66 30
-198 34 -269 9z m189 -129 c48 -28 71 -93 77 -211 9 -192 -40 -292 -141 -292
-54 0 -93 26 -119 80 -20 40 -23 60 -23 180 0 120 3 140 23 180 12 25 34 53
50 62 35 22 96 23 133 1z"/>
<path d="M1850 1890 l0 -380 74 0 c54 0 79 4 90 16 14 13 16 60 16 357 0 188
-3 352 -6 365 -6 21 -12 22 -90 22 l-84 0 0 -380z"/>
<path d="M2155 2238 c4 -18 21 -73 36 -123 16 -49 38 -119 49 -155 11 -36 35
-114 54 -175 19 -60 45 -145 58 -188 27 -91 24 -89 152 -85 86 3 90 4 97 28 4
14 21 70 38 125 17 55 41 132 52 170 12 39 25 79 29 90 4 11 18 54 30 95 12
41 32 110 46 152 13 42 24 82 24 88 0 6 -32 10 -85 10 l-84 0 -11 -37 c-29
-106 -64 -238 -85 -318 -40 -154 -56 -209 -60 -213 -7 -8 -23 36 -50 138 -15
58 -29 116 -32 130 -2 14 -8 34 -13 45 -5 11 -11 31 -13 45 -3 14 -16 66 -29
115 l-23 90 -93 3 -94 3 7 -33z"/>
<path d="M4797 2264 c-4 -4 -7 -168 -7 -364 0 -272 3 -360 13 -374 10 -14 26
-16 92 -14 l80 3 0 375 0 375 -85 3 c-47 1 -89 0 -93 -4z"/>
<path d="M5842 768 l3 -373 28 -3 c54 -6 55 -6 56 311 1 160 -2 325 -5 365
l-6 72 -39 0 -39 0 2 -372z"/>
<path d="M7128 1001 c-2 -77 -6 -143 -10 -146 -3 -4 -25 7 -49 24 -50 36 -93
40 -147 12 -43 -22 -63 -44 -80 -86 -26 -66 -32 -125 -22 -211 12 -112 43
-168 107 -196 58 -25 100 -19 156 22 l42 31 3 -31 c3 -24 8 -30 27 -30 58 0
55 -20 55 381 l-1 369 -38 0 -39 0 -4 -139z m-55 -181 c34 -27 47 -76 47 -177
0 -99 -20 -157 -61 -178 -45 -24 -77 -19 -114 18 -27 27 -34 44 -40 91 -10 78
1 191 22 223 30 46 102 57 146 23z"/>
<path d="M7860 995 c0 -80 -4 -145 -9 -145 -5 0 -14 7 -22 16 -38 46 -129 56
-184 20 -107 -70 -128 -331 -36 -446 54 -67 151 -76 215 -20 36 32 46 30 46
-7 0 -20 5 -23 34 -23 19 0 35 6 37 13 2 6 3 175 1 375 l-2 362 -40 0 -40 0 0
-145z m-59 -165 c45 -24 69 -138 54 -256 -6 -47 -13 -64 -40 -91 -37 -37 -69
-42 -115 -18 -47 24 -60 65 -60 182 0 111 11 149 52 177 26 18 80 21 109 6z"/>
<path d="M11962 1053 c-32 -68 -31 -88 4 -81 19 3 114 120 114 139 0 5 -19 9
-43 9 l-43 0 -32 -67z"/>
<path d="M10944 1096 c-9 -24 0 -68 17 -79 9 -5 28 -7 42 -3 24 6 27 11 27 51
l0 45 -40 0 c-26 0 -43 -5 -46 -14z"/>
<path d="M4105 1077 c-3 -6 -4 -163 -3 -347 l3 -335 42 -3 42 -3 3 163 3 163
103 3 103 3 -3 32 -3 32 -103 3 -103 3 3 112 3 112 107 3 c93 2 108 5 113 21
3 10 3 26 -1 35 -5 14 -26 16 -155 16 -111 0 -151 -3 -154 -13z"/>
<path d="M8785 1078 c-3 -7 -4 -164 -3 -348 l3 -335 40 0 40 0 0 345 0 345
-38 3 c-24 2 -39 -1 -42 -10z"/>
<path d="M6133 1018 c-32 -11 -33 -13 -33 -64 l0 -54 -40 0 c-38 0 -40 -2 -40
-30 0 -25 4 -30 24 -30 57 0 56 3 56 -192 0 -202 7 -229 65 -254 42 -17 66
-18 100 -2 40 18 30 51 -18 59 -21 3 -43 11 -50 18 -8 8 -13 68 -15 186 l-3
175 25 0 c35 0 76 17 82 35 9 22 -1 28 -54 35 l-47 5 -3 63 c-2 34 -6 62 -10
61 -4 -1 -22 -6 -39 -11z"/>
<path d="M4569 901 c-52 -16 -69 -31 -69 -60 0 -38 9 -44 37 -26 33 22 116 30
152 15 33 -13 54 -54 49 -96 -3 -28 -5 -29 -78 -35 -144 -11 -210 -65 -210
-172 0 -101 92 -166 196 -137 23 7 51 21 60 31 23 25 42 24 46 -3 2 -19 9 -23
36 -23 l34 0 -2 180 c0 99 -5 198 -10 220 -19 86 -136 137 -241 106z m171
-306 c0 -92 -44 -145 -120 -145 -70 0 -107 62 -76 127 20 43 63 62 139 63 l57
0 0 -45z"/>
<path d="M5065 894 c-63 -23 -100 -66 -132 -154 -16 -44 -17 -150 -2 -187 30
-74 39 -90 61 -109 52 -48 122 -69 192 -59 60 9 76 23 69 58 -5 27 -7 28 -47
21 -127 -24 -184 25 -193 166 -5 68 -3 84 17 125 33 68 69 88 148 80 l62 -7 0
31 c0 25 -6 34 -26 41 -36 14 -102 11 -149 -6z"/>
<path d="M6445 892 c-38 -13 -51 -22 -53 -40 -7 -47 3 -53 50 -32 52 24 109
25 148 5 32 -16 44 -45 38 -91 -3 -28 -5 -29 -78 -35 -41 -4 -88 -12 -105 -19
-71 -27 -114 -104 -100 -179 10 -53 31 -81 82 -103 56 -25 120 -18 162 18 36
30 44 30 56 2 7 -16 19 -23 39 -23 l29 0 -2 190 c-2 212 -5 230 -35 264 -51
57 -140 74 -231 43z m185 -311 c0 -54 -3 -63 -34 -95 -29 -31 -40 -36 -80 -36
-73 0 -113 56 -85 121 19 47 63 69 137 69 l62 0 0 -59z"/>
<path d="M8176 900 c-41 -13 -85 -57 -109 -110 -30 -68 -29 -227 3 -293 49
-104 161 -140 289 -96 24 9 31 17 31 38 0 38 -7 42 -47 26 -53 -23 -125 -19
-158 7 -32 25 -55 74 -55 117 l0 30 143 3 142 3 -3 65 c-3 81 -17 127 -51 164
-46 51 -113 67 -185 46z m88 -60 c35 -13 66 -66 66 -112 l0 -38 -52 -2 c-51
-1 -94 -1 -130 1 -41 2 -4 121 46 145 37 19 38 19 70 6z"/>
<path d="M9162 895 c-18 -8 -35 -21 -38 -30 -9 -23 -32 -18 -36 8 -2 18 -10
23 -41 25 l-37 3 2 -253 3 -253 34 -3 c20 -2 37 2 42 10 5 7 9 90 9 184 0 161
1 173 23 204 37 55 119 63 151 15 12 -19 16 -62 18 -217 l3 -193 37 -3 c49 -4
51 3 46 230 -3 162 -5 187 -23 218 -37 63 -120 87 -193 55z"/>
<path d="M9601 897 c-50 -18 -91 -74 -107 -149 -18 -83 -17 -125 2 -210 27
-117 105 -175 202 -149 21 6 49 22 62 36 13 14 28 25 33 25 15 0 1 -115 -18
-148 -36 -60 -116 -79 -205 -47 -58 20 -60 20 -60 -20 0 -44 17 -53 112 -61
120 -10 189 19 228 97 19 35 20 59 20 334 l0 295 -30 0 c-19 0 -33 -6 -35 -15
-16 -51 -14 -50 -43 -23 -53 50 -94 59 -161 35z m130 -67 c45 -24 69 -138 54
-256 -9 -73 -53 -124 -107 -124 -78 0 -108 53 -108 195 0 109 12 152 53 180
25 17 79 20 108 5z"/>
<path d="M10106 900 c-37 -12 -72 -44 -104 -100 -24 -41 -26 -53 -26 -150 1
-114 12 -152 58 -207 49 -59 151 -75 254 -42 28 9 32 15 32 45 0 39 3 38 -43
19 -84 -35 -167 -12 -202 55 -18 36 -20 100 -2 101 6 0 71 1 142 2 l130 2 -3
74 c-7 159 -103 240 -236 201z m121 -83 c13 -12 27 -43 32 -70 11 -59 6 -62
-109 -62 l-85 0 -3 35 c-2 24 4 47 20 70 43 63 98 73 145 27z"/>
<path d="M10605 897 c-16 -8 -39 -24 -50 -37 l-20 -22 -5 28 c-5 26 -9 29 -43
29 -20 0 -37 -3 -37 -7 0 -5 0 -119 0 -254 l0 -245 38 3 37 3 5 180 c6 209 14
236 79 256 31 9 44 9 67 -2 45 -22 53 -62 53 -262 l1 -178 38 3 37 3 3 202 c3
221 -2 243 -60 286 -33 25 -104 31 -143 14z"/>
<path d="M11265 891 c-50 -22 -91 -69 -105 -119 -5 -20 -10 -80 -10 -133 0
-86 3 -102 28 -150 37 -72 92 -104 177 -103 33 0 77 6 98 13 32 11 37 17 37
43 0 28 -2 30 -27 24 -53 -13 -122 -18 -147 -12 -36 9 -72 63 -80 119 l-7 47
145 0 146 0 0 48 c0 101 -44 196 -103 223 -53 23 -101 24 -152 0z m132 -71
c23 -22 32 -42 36 -77 3 -27 4 -49 3 -50 -5 -5 -181 -10 -193 -5 -18 6 -5 80
20 115 37 54 90 60 134 17z"/>
<path d="M11775 896 c-17 -7 -36 -20 -44 -29 -19 -23 -29 -21 -33 6 -2 18 -10
23 -41 25 l-37 3 2 -253 3 -253 40 0 40 0 5 180 c3 118 9 188 18 202 17 30 52
53 79 53 16 0 27 8 34 27 19 51 -5 66 -66 39z"/>
<path d="M12249 901 c-55 -17 -69 -30 -69 -66 0 -39 6 -42 38 -20 30 22 115
30 151 15 33 -13 54 -54 49 -96 -3 -29 -4 -29 -83 -35 -44 -3 -94 -13 -110
-22 -43 -22 -85 -66 -86 -91 0 -11 -2 -30 -4 -41 -8 -39 8 -95 33 -120 54 -54
165 -54 222 0 l25 24 17 -29 c12 -21 25 -30 43 -30 l25 0 0 194 c0 204 -6 242
-49 280 -42 38 -138 56 -202 37z m171 -305 c0 -93 -45 -146 -123 -146 -68 0
-103 57 -76 121 19 47 63 69 137 69 l62 0 0 -44z"/>
<path d="M5345 763 c-11 -197 2 -299 42 -341 17 -17 77 -42 103 -42 30 0 107
37 114 55 10 26 26 16 26 -16 0 -29 2 -30 38 -27 l37 3 0 250 0 250 -40 0 -40
0 -5 -185 c-6 -210 -12 -231 -76 -249 -43 -12 -76 -2 -98 31 -13 19 -16 55
-16 215 l0 193 -39 0 -39 0 -7 -137z"/>
<path d="M10952 648 l3 -253 35 0 35 0 0 250 0 250 -38 3 -37 3 2 -253z"/>
<path d="M11932 648 l3 -253 38 -3 37 -3 0 255 0 256 -40 0 -40 0 2 -252z"/>
</g>
</svg>
